<?xml version="1.0" encoding="UTF-8" standalone="no"?>
<svg
   xmlns:dc="http://purl.org/dc/elements/1.1/"
   xmlns:cc="http://creativecommons.org/ns#"
   xmlns:rdf="http://www.w3.org/1999/02/22-rdf-syntax-ns#"
   xmlns:svg="http://www.w3.org/2000/svg"
   xmlns="http://www.w3.org/2000/svg"
   id="svg8"
   version="1.1"
   viewBox="0 0 168.48259 168.48256"
   height="168.48256mm"
   width="168.48259mm">
  <defs
     id="defs2" />
  <metadata
     id="metadata5">
    <rdf:RDF>
      <cc:Work
         rdf:about="">
        <dc:format>image/svg+xml</dc:format>
        <dc:type
           rdf:resource="http://purl.org/dc/dcmitype/StillImage" />
        <dc:title></dc:title>
      </cc:Work>
    </rdf:RDF>
  </metadata>
  <g
     transform="translate(-20.932884,-20.932759)"
     id="layer1">
    <rect
       y="38.253757"
       x="38.253876"
       height="133.84056"
       width="133.84059"
       id="rect10"
       style="fill:#000000;fill-rule:evenodd;stroke-width:0.284936" />
    <path
       d="m 44.027469,108.06086 v 28.54714 1.16499 28.54763 h 18.643423 39.616328 v -26.24317 h -5.83799 v -5.77342 h 5.83799 V 108.06086 H 62.670892 Z"
       style="fill:#4d4d4d;fill-opacity:1;stroke:none;stroke-width:0.333722"
       id="rect1726" />
    <path
       d="m 108.06113,44.027209 v 18.643421 39.61633 h 16.33395 V 62.671129 h 2.30897 v -4.99e-4 h 1.1655 v 4.99e-4 h 2.29944 V 102.28696 H 144.208 V 62.67063 h 2.30446 1.165 2.30445 v 39.61633 h 16.33896 V 62.67063 44.027209 h -18.64341 -1.165 -18.64291 -1.1655 z"
       style="fill:#4d4d4d;stroke-width:0.240932"
       id="rect127-6" />
    <path
       d="m 44.027469,44.027209 v 18.643421 1.164994 18.64292 1.165497 18.642919 H 62.670892 102.28722 V 85.93548 H 62.670892 V 83.644041 82.478544 80.162072 H 102.28722 V 66.140082 H 62.670892 V 63.835624 62.67063 60.366674 H 102.28722 V 44.027209 H 62.670892 Z"
       style="fill:#4d4d4d;stroke-width:0.240932"
       id="rect127" />
    <path
       d="m 108.06113,108.06086 v 58.25976 h 26.24267 v -18.64343 h 2.30446 1.16499 2.30445 v 18.64343 h 26.24317 v -58.25976 z m 26.24267,16.33897 h 5.7739 v 5.77341 h -5.7739 z"
       style="fill:#4d4d4d;stroke-width:0.654152"
       id="rect85-8-1" />
    <rect
       transform="scale(-1,1)"
       style="fill:#000000;fill-opacity:1;stroke:none;stroke-width:0.488546"
       id="rect1210-7-7-8-8"
       width="20.97341"
       height="5.7736869"
       x="-83.644394"
       y="124.27036" />
    <rect
       y="144.06587"
       x="-83.644287"
       height="5.7736869"
       width="20.97341"
       id="rect1210-7-7-8-8-4"
       style="fill:#000000;fill-opacity:1;stroke:none;stroke-width:0.488545"
       transform="scale(-1,1)" />
    <g
       id="g950"
       transform="matrix(0.96880209,0,0,0.96880209,5.0774956,5.2048982)">
      <g
         id="g903">
        <path
           id="rect1210-09-7-1-5-4"
           style="fill:#000000;fill-opacity:1;stroke:none;stroke-width:0.264583"
           d="m 190.27413,100.20848 h -5.95932 -5.95984 v 5.95984 h 5.95984 5.95932 z" />
        <path
           d="m 190.27413,50.0627 h -5.95932 -5.95984 v 5.95984 h 5.95984 5.95932 z"
           style="fill:#000000;fill-opacity:1;stroke:none;stroke-width:0.264583"
           id="rect1210-09-7-1-7-7-5" />
        <path
           d="m 190.27413,75.13559 h -5.95932 -5.95984 v 5.95984 h 5.95984 5.95932 z"
           style="fill:#000000;fill-opacity:1;stroke:none;stroke-width:0.264583"
           id="rect1210-09-7-1-0-2-2" />
        <path
           id="rect1210-09-7-1-0-8-5-8"
           style="fill:#000000;fill-opacity:1;stroke:none;stroke-width:0.264583"
           d="m 190.27413,125.28137 h -5.95932 -5.95984 v 5.95984 h 5.95984 5.95932 z" />
        <path
           id="rect1210-09-7-1-7-9-9-5"
           style="fill:#000000;fill-opacity:1;stroke:none;stroke-width:0.264583"
           d="m 190.27413,150.35427 h -5.95932 -5.95984 v 5.95984 h 5.95984 5.95932 z" />
      </g>
      <g
         id="g910">
        <path
           id="rect1210-09-7-1"
           style="fill:#000000;fill-opacity:1;stroke:none;stroke-width:0.264583"
           d="m 100.34013,16.234338 v 5.959326 5.959843 h 5.95984 v -5.959843 -5.959326 z" />
        <path
           d="m 50.194349,16.234338 v 5.959326 5.959843 h 5.959841 v -5.959843 -5.959326 z"
           style="fill:#000000;fill-opacity:1;stroke:none;stroke-width:0.264583"
           id="rect1210-09-7-1-7" />
        <path
           d="m 75.267238,16.234338 v 5.959326 5.959843 h 5.959843 v -5.959843 -5.959326 z"
           style="fill:#000000;fill-opacity:1;stroke:none;stroke-width:0.264583"
           id="rect1210-09-7-1-0" />
        <path
           id="rect1210-09-7-1-0-8"
           style="fill:#000000;fill-opacity:1;stroke:none;stroke-width:0.264583"
           d="m 125.41302,16.234338 v 5.959326 5.959843 h 5.95984 v -5.959843 -5.959326 z" />
        <path
           id="rect1210-09-7-1-7-9"
           style="fill:#000000;fill-opacity:1;stroke:none;stroke-width:0.264583"
           d="m 150.48592,16.234338 v 5.959326 5.959843 h 5.95984 v -5.959843 -5.959326 z" />
      </g>
      <g
         id="g924">
        <path
           d="m 100.34013,178.2233 v 5.95932 5.95984 h 5.95984 v -5.95984 -5.95932 z"
           style="fill:#000000;fill-opacity:1;stroke:none;stroke-width:0.264583"
           id="rect1210-09-7-1-5" />
        <path
           id="rect1210-09-7-1-7-7"
           style="fill:#000000;fill-opacity:1;stroke:none;stroke-width:0.264583"
           d="m 50.19435,178.2233 v 5.95932 5.95984 h 5.95984 v -5.95984 -5.95932 z" />
        <path
           id="rect1210-09-7-1-0-2"
           style="fill:#000000;fill-opacity:1;stroke:none;stroke-width:0.264583"
           d="m 75.26724,178.2233 v 5.95932 5.95984 h 5.95984 v -5.95984 -5.95932 z" />
        <path
           d="m 125.41302,178.2233 v 5.95932 5.95984 h 5.95984 v -5.95984 -5.95932 z"
           style="fill:#000000;fill-opacity:1;stroke:none;stroke-width:0.264583"
           id="rect1210-09-7-1-0-8-5" />
        <path
           d="m 150.48592,178.2233 v 5.95932 5.95984 h 5.95984 v -5.95984 -5.95932 z"
           style="fill:#000000;fill-opacity:1;stroke:none;stroke-width:0.264583"
           id="rect1210-09-7-1-7-9-9" />
      </g>
      <g
         id="g917">
        <path
           d="m 28.285133,100.20848 h -5.95932 -5.95984 v 5.95984 h 5.95984 5.95932 z"
           style="fill:#000000;fill-opacity:1;stroke:none;stroke-width:0.264583"
           id="rect1210-09-7-1-5-4-9" />
        <path
           id="rect1210-09-7-1-7-7-5-1"
           style="fill:#000000;fill-opacity:1;stroke:none;stroke-width:0.264583"
           d="m 28.285133,50.062703 h -5.95932 -5.95984 v 5.95984 h 5.95984 5.95932 z" />
        <path
           id="rect1210-09-7-1-0-2-2-0"
           style="fill:#000000;fill-opacity:1;stroke:none;stroke-width:0.264583"
           d="m 28.285133,75.135593 h -5.95932 -5.95984 v 5.95984 h 5.95984 5.95932 z" />
        <path
           d="m 28.285133,125.28137 h -5.95932 -5.95984 v 5.95984 h 5.95984 5.95932 z"
           style="fill:#000000;fill-opacity:1;stroke:none;stroke-width:0.264583"
           id="rect1210-09-7-1-0-8-5-8-8" />
        <path
           d="m 28.285133,150.35427 h -5.95932 -5.95984 v 5.95984 h 5.95984 5.95932 z"
           style="fill:#000000;fill-opacity:1;stroke:none;stroke-width:0.264583"
           id="rect1210-09-7-1-7-9-9-5-7" />
      </g>
    </g>
  </g>
</svg>
