<?xml version="1.0" encoding="UTF-8" standalone="no"?>
<!-- Created with Inkscape (http://www.inkscape.org/) -->

<svg
   width="153.11989mm"
   height="81.739853mm"
   viewBox="0 0 153.11989 81.739853"
   version="1.1"
   id="svg2336"
   inkscape:export-filename="C:\Users\z003xz3p\Desktop\emba_logo.png"
   inkscape:export-xdpi="96"
   inkscape:export-ydpi="96"
   inkscape:version="1.1 (c68e22c387, 2021-05-23)"
   sodipodi:docname="embark_logo.svg"
   xmlns:inkscape="http://www.inkscape.org/namespaces/inkscape"
   xmlns:sodipodi="http://sodipodi.sourceforge.net/DTD/sodipodi-0.dtd"
   xmlns="http://www.w3.org/2000/svg"
   xmlns:svg="http://www.w3.org/2000/svg">
  <sodipodi:namedview
     id="namedview2338"
     pagecolor="#505050"
     bordercolor="#eeeeee"
     borderopacity="1"
     inkscape:pageshadow="0"
     inkscape:pageopacity="0"
     inkscape:pagecheckerboard="0"
     inkscape:document-units="mm"
     showgrid="false"
     inkscape:zoom="0.77771465"
     inkscape:cx="294.45247"
     inkscape:cy="462.25181"
     inkscape:window-width="3440"
     inkscape:window-height="1387"
     inkscape:window-x="-8"
     inkscape:window-y="-8"
     inkscape:window-maximized="1"
     inkscape:current-layer="layer1" />
  <defs
     id="defs2333" />
  <g
     inkscape:label="Ebene 1"
     inkscape:groupmode="layer"
     id="layer1"
     transform="translate(-27.202939,-26.150693)">
    <path
       id="rect1210-09-7-1-5-4-9-6-5-7-4-4-4-0-0-7"
       style="fill:#ffcc00;fill-opacity:1;stroke:none;stroke-width:0.0834247"
       d="m 90.175837,35.694206 1.079521,1.079521 1.91926,1.919264 0.91984,-0.920358 -1.91926,-1.919264 -0.15916,-0.159163 z" />
    <path
       id="rect1210-09-7-1-5-4-9-6-5-7-4-4-4-0-0-3"
       style="fill:#ffcc00;fill-opacity:1;stroke:none;stroke-width:0.0834247"
       d="m 92.254258,37.772633 1.07952,1.079521 1.91926,1.919264 0.91984,-0.920358 -1.91926,-1.919264 -0.15916,-0.159163 z" />
    <path
       id="rect1210-09-7-1-5-4-9-6-5-7-4-4-4-0-0-3-9"
       style="fill:#ffcc00;fill-opacity:1;stroke:none;stroke-width:0.0834247"
       d="m 88.097418,33.615779 1.07952,1.079521 1.91926,1.919264 0.91984,-0.920358 -1.91926,-1.919264 -0.15916,-0.159163 z" />
    <ellipse
       style="fill:#ffcc00;fill-opacity:1;stroke-width:0.277951"
       id="path12153-6-4-0"
       cx="67.578865"
       cy="85.47802"
       rx="0.93767363"
       ry="0.89347595" />
    <path
       id="rect1210-09-7-1-7-7-5-1"
       style="fill:#ffcc00;fill-opacity:1;stroke:none;stroke-width:0.101546"
       d="m 86.694187,49.314147 h -4.021122 -4.021473 v 1.301021 h 4.021473 4.021122 z" />
    <path
       id="rect1210-09-7-1-7-7-5-1-0"
       style="fill:#ffcc00;fill-opacity:1;stroke:none;stroke-width:0.149545"
       d="m 79.889735,43.05564 h -8.720917 -8.721672 v 1.301021 h 8.721672 8.720917 z" />
    <path
       id="rect1210-09-7-1-7-7-5-1-0-0"
       style="fill:#ffcc00;fill-opacity:1;stroke:none;stroke-width:0.0971489"
       d="m 92.016038,35.694206 h -3.680392 -3.680711 v 1.301021 h 3.680711 3.680392 z" />
    <path
       id="rect1210-09-7-1-7-7-5-1-0-0-1"
       style="fill:#ffcc00;fill-opacity:1;stroke:none;stroke-width:0.102113"
       d="M 89.937618,33.615779 H 85.871512 81.805055 V 34.9168 h 4.066457 4.066106 z" />
    <rect
       y="45.832386"
       x="87.995155"
       height="30.157974"
       width="30.157982"
       id="rect10"
       style="fill:#ffffff;fill-opacity:1;fill-rule:evenodd;stroke-width:0.064204" />
    <path
       id="rect1726"
       style="fill:#29043f;fill-opacity:1;stroke:none;stroke-width:0.0751967"
       d="m 89.296127,61.561646 v 6.432682 0.262517 6.432682 h 4.200777 8.926586 v -5.913334 h -1.31516 V 67.47498 h 1.31516 v -5.913334 h -8.926586 z m 4.200777,3.652491 h 4.72581 v 1.301213 h -4.72581 z m 0,4.460708 h 4.72581 v 1.300697 h -4.72581 z" />
    <path
       d="m 103.72466,47.133305 v 4.200878 8.926653 h 3.68049 v -8.926541 h 0.52027 v -1.12e-4 h 0.26262 v 1.12e-4 h 0.51813 v 8.926541 h 3.16337 v -8.926653 h 0.51926 0.26251 0.51925 v 8.926653 h 3.68162 v -8.926653 -4.200878 h -4.20087 -0.26251 -4.20076 -0.26262 z"
       style="fill:#29043f;fill-opacity:1;stroke-width:0.0542886"
       id="rect127-6" />
    <path
       d="m 89.296108,47.133305 v 4.200878 0.262505 4.200765 0.262619 4.200764 h 4.200878 8.926644 v -3.68444 h -8.926644 v -0.516324 -0.262619 -0.521965 h 8.926644 v -3.159542 h -8.926644 v -0.519258 -0.262505 -0.519145 h 8.926644 v -3.681733 h -8.926644 z"
       style="fill:#29043f;fill-opacity:1;stroke-width:0.0542886"
       id="rect127" />
    <path
       d="m 103.72466,61.561855 v 13.127533 h 5.91319 v -4.200879 h 0.51926 0.26251 0.51925 v 4.200879 h 5.91331 V 61.561855 Z m 5.91319,3.681622 h 1.30102 v 1.300908 h -1.30102 z"
       style="fill:#29043f;fill-opacity:1;stroke-width:0.147399"
       id="rect85-8-1" />
    <path
       id="rect1210-09-7-1-5-4"
       style="fill:#ffcc00;fill-opacity:1;stroke:none;stroke-width:0.0577579"
       d="m 122.05604,60.260864 h -1.30091 -1.30102 v 1.30102 h 1.30102 1.30091 z" />
    <path
       d="m 130.19823,49.314147 h -5.37183 -5.37229 v 1.30102 h 5.37229 5.37183 z"
       style="fill:#ffcc00;fill-opacity:1;stroke:none;stroke-width:0.117368"
       id="rect1210-09-7-1-7-7-5" />
    <path
       d="m 124.82596,54.787505 h -2.68581 -2.68604 v 1.301021 h 2.68604 2.68581 z"
       style="fill:#ffcc00;fill-opacity:1;stroke:none;stroke-width:0.0829899"
       id="rect1210-09-7-1-0-2-2" />
    <path
       id="rect1210-09-7-1-0-8-5-8"
       style="fill:#ffcc00;fill-opacity:1;stroke:none;stroke-width:0.203505"
       d="M 151.75552,65.734222 H 135.6055 119.45411 v 1.301021 h 16.15139 16.15002 z" />
    <path
       id="rect1210-09-7-1-7-9-9-5"
       style="fill:#ffcc00;fill-opacity:1;stroke:none;stroke-width:0.107232"
       d="m 128.42271,71.207583 h -4.48411 -4.48449 v 1.30102 h 4.48449 4.48411 z" />
    <path
       id="rect1210-09-7-1"
       style="fill:#ffcc00;fill-opacity:1;stroke:none;stroke-width:0.143479"
       d="m 102.42363,28.474952 v 8.027887 8.028578 h 1.30103 v -8.028578 -8.027887 z" />
    <path
       id="rect1210-09-7-1-2"
       style="fill:#ffcc00;fill-opacity:1;stroke:none;stroke-width:0.0859559"
       d="m 99.686675,32.622362 v 2.881228 2.881476 H 100.9877 V 35.50359 32.622362 Z" />
    <path
       d="m 91.476922,41.929487 v 1.300909 1.301021 h 1.301021 v -1.301021 -1.300909 z"
       style="fill:#ffcc00;fill-opacity:1;stroke:none;stroke-width:0.0577579"
       id="rect1210-09-7-1-7" />
    <path
       d="m 80.667489,41.751013 v 2.992501 2.992759 h 1.301021 v -2.992759 -2.992501 z"
       style="fill:#ffcc00;fill-opacity:1;stroke:none;stroke-width:0.0875998"
       id="rect1210-09-7-1-7-3" />
    <path
       d="m 96.950285,41.929487 v 1.300909 1.301021 h 1.30102 v -1.301021 -1.300909 z"
       style="fill:#ffcc00;fill-opacity:1;stroke:none;stroke-width:0.0577579"
       id="rect1210-09-7-1-0" />
    <path
       id="rect1210-09-7-1-0-8"
       style="fill:#ffcc00;fill-opacity:1;stroke:none;stroke-width:0.102824"
       d="m 107.89699,36.285001 v 4.12303 4.123386 h 1.30102 v -4.123386 -4.12303 z" />
    <path
       id="rect1210-09-7-1-7-9"
       style="fill:#ffcc00;fill-opacity:1;stroke:none;stroke-width:0.0577579"
       d="m 113.37035,41.929487 v 1.300909 1.301021 h 1.30102 v -1.301021 -1.300909 z" />
    <path
       d="m 102.42363,77.291333 v 1.300907 1.30102 h 1.30103 v -1.30102 -1.300907 z"
       style="fill:#ffcc00;fill-opacity:1;stroke:none;stroke-width:0.0577579"
       id="rect1210-09-7-1-5" />
    <path
       id="rect1210-09-7-1-7-7"
       style="fill:#ffcc00;fill-opacity:1;stroke:none;stroke-width:0.0577579"
       d="m 91.476923,77.291333 v 1.300907 1.30102 h 1.30102 v -1.30102 -1.300907 z" />
    <path
       id="rect1210-09-7-1-0-2"
       style="fill:#ffcc00;fill-opacity:1;stroke:none;stroke-width:0.0577579"
       d="m 96.950285,77.291333 v 1.300907 1.30102 h 1.30102 v -1.30102 -1.300907 z" />
    <path
       d="m 107.89699,77.291333 v 3.008813 3.009074 h 1.30102 v -3.009074 -3.008813 z"
       style="fill:#ffcc00;fill-opacity:1;stroke:none;stroke-width:0.0878387"
       id="rect1210-09-7-1-0-8-5" />
    <path
       d="m 113.37035,77.291333 v 1.300907 1.30102 h 1.30102 v -1.30102 -1.300907 z"
       style="fill:#ffcc00;fill-opacity:1;stroke:none;stroke-width:0.0577579"
       id="rect1210-09-7-1-7-9-9" />
    <path
       d="M 86.694187,60.260864 H 70.734958 54.77435 v 1.30102 h 15.960608 15.959229 z"
       style="fill:#ffcc00;fill-opacity:1;stroke:none;stroke-width:0.2023"
       id="rect1210-09-7-1-5-4-9" />
    <path
       d="M 78.772761,78.59224 H 62.813532 46.852924 v 1.30102 h 15.960608 15.959229 z"
       style="fill:#ffcc00;fill-opacity:1;stroke:none;stroke-width:0.2023"
       id="rect1210-09-7-1-5-4-9-2" />
    <path
       d="M 79.067617,62.99784 H 68.16929 57.27002 v 1.301021 h 10.89927 10.898327 z"
       style="fill:#ffcc00;fill-opacity:1;stroke:none;stroke-width:0.167173"
       id="rect1210-09-7-1-5-4-9-3-0" />
    <path
       d="M 52.576033,62.99784 H 41.677706 30.778436 v 1.301021 h 10.89927 10.898327 z"
       style="fill:#ffcc00;fill-opacity:1;stroke:none;stroke-width:0.167173"
       id="rect1210-09-7-1-5-4-9-3-0-6" />
    <path
       id="rect1210-09-7-1-5-4-9-3-0-5"
       style="fill:#ffcc00;fill-opacity:1;stroke:none;stroke-width:0.171469"
       d="m 69.805842,62.997735 c 0,0 -1.463045,1.463046 -1.919261,1.919261 -0.41529,0.41529 -0.818038,0.818039 -0.818038,0.818039 H 56.142079 44.675596 v 1.300694 h 11.466483 10.024711 1.440738 l 1.198893,-1.198374 1.919264,-1.919264 z"
       sodipodi:nodetypes="cscccccccccc" />
    <path
       d="m 86.694187,65.734223 h -2.714009 -2.714243 v 1.30102 h 2.714243 2.714009 z"
       style="fill:#ffcc00;fill-opacity:1;stroke:none;stroke-width:0.0834246"
       id="rect1210-09-7-1-5-4-9-6" />
    <path
       id="rect1210-09-7-1-5-4-9-6-5"
       style="fill:#ffcc00;fill-opacity:1;stroke:none;stroke-width:0.0834247"
       d="m 81.266126,65.734001 -1.919263,1.919263 -1.919261,1.919261 0.199469,0.199472 h 1.440738 l 1.198894,-1.198377 1.919263,-1.919261 z" />
    <path
       id="rect1210-09-7-1-5-4-9-6-5-74"
       style="fill:#ffcc00;fill-opacity:1;stroke:none;stroke-width:0.0834247"
       d="m 91.858103,78.972901 -1.919264,1.919264 -1.919261,1.919261 0.199469,0.199472 h 1.440739 l 1.198893,-1.198377 1.919264,-1.919261 z" />
    <path
       id="rect1210-09-7-1-5-4-9-6-5-74-81"
       style="fill:#ffcc00;fill-opacity:1;stroke:none;stroke-width:0.0834247"
       d="m 108.81683,37.205361 1.91926,-1.91927 1.91926,-1.919261 -0.19946,-0.19947 h -1.44074 l -1.1989,1.19838 -1.91926,1.919261 z" />
    <path
       id="rect1210-09-7-1-5-4-9-6-5-74-81-7"
       style="fill:#ffcc00;fill-opacity:1;stroke:none;stroke-width:0.0834247"
       d="m 114.29019,42.849847 1.91926,-1.91927 1.91926,-1.919261 -0.19946,-0.19947 h -1.44074 l -1.1989,1.198381 -1.91926,1.91926 z" />
    <path
       id="rect1210-09-7-1-5-4-9-6-5-74-81-7-2"
       style="fill:#ffcc00;fill-opacity:1;stroke:none;stroke-width:0.0834247"
       d="m 114.01599,36.152902 -0.66818,0.66766 -1.91926,1.919264 0.91984,0.920356 1.91926,-1.919262 0.81546,-0.815453 h -1.06712 z" />
    <path
       id="rect1210-09-7-1-5-4-9-6-5-74-81-7-3"
       style="fill:#ffcc00;fill-opacity:1;stroke:none;stroke-width:0.0834247"
       d="m 121.90396,40.112867 1.91926,-1.91927 1.91926,-1.919261 -0.19946,-0.19947 h -1.44074 l -1.1989,1.198381 -1.91926,1.91926 z" />
    <path
       id="rect1210-09-7-1-5-4-9-6-5-74-81-7-3-4"
       style="fill:#ffcc00;fill-opacity:1;stroke:none;stroke-width:0.0834247"
       d="m 132.30564,37.375887 1.91926,-1.91927 1.91926,-1.919261 -0.19946,-0.19947 h -1.44074 l -1.1989,1.198381 -1.91926,1.91926 z" />
    <path
       id="rect1210-09-7-1-5-4-9-6-5-74-1"
       style="fill:#ffcc00;fill-opacity:1;stroke:none;stroke-width:0.0834247"
       d="m 97.331295,78.972986 -1.919263,1.919264 -1.028877,1.028877 v 1.089856 h 0.749823 l 1.198894,-1.198378 1.919263,-1.919261 z" />
    <path
       id="rect1210-09-7-1-5-4-9-6-5-74-0"
       style="fill:#ffcc00;fill-opacity:1;stroke:none;stroke-width:0.0834247"
       d="m 102.80482,78.972901 -1.91926,1.919264 -1.919265,1.919261 0.19947,0.199472 h 1.440735 l 1.19889,-1.198377 1.91927,-1.919261 z" />
    <path
       id="rect1210-09-7-1-5-4-9-6-5-74-0-4"
       style="fill:#ffcc00;fill-opacity:1;stroke:none;stroke-width:0.0834247"
       d="m 99.686665,82.090539 -1.91926,1.919264 -1.91927,1.919261 0.19947,0.199472 h 1.44074 l 1.19889,-1.198377 1.919265,-1.919261 z" />
    <path
       id="rect1210-09-7-1-5-4-9-6-5-7"
       style="fill:#ffcc00;fill-opacity:1;stroke:none;stroke-width:0.0834247"
       d="m 81.265934,60.260864 -1.919264,1.919264 -1.919261,1.919261 0.19947,0.199472 h 1.440738 l 1.198893,-1.198377 1.919264,-1.919261 z" />
    <path
       id="rect1210-09-7-1-5-4-9-6-5-7-00"
       style="fill:#ffcc00;fill-opacity:1;stroke:none;stroke-width:0.0834247"
       d="m 103.72466,40.583383 -1.91926,-1.919264 -1.919255,-1.919261 -0.19947,0.19947 v 1.440738 l 1.198365,1.198893 1.91926,1.919264 z" />
    <path
       id="rect1210-09-7-1-5-4-9-6-5-7-00-1"
       style="fill:#ffcc00;fill-opacity:1;stroke:none;stroke-width:0.0834247"
       d="m 97.491493,34.34987 v 0.961699 h -0.541571 v 0.336412 l 1.198378,1.198894 1.91926,1.919263 0.92036,-0.919839 -1.919265,-1.919264 z" />
    <path
       d="M 70.737528,57.524482 H 59.839201 48.939931 v 1.30102 h 10.89927 10.898327 z"
       style="fill:#ffcc00;fill-opacity:1;stroke:none;stroke-width:0.167173"
       id="rect1210-09-7-1-5-4-9-3-0-35" />
    <path
       id="rect1210-09-7-1-5-4-9-6-5-7-9"
       style="fill:#ffcc00;fill-opacity:1;stroke:none;stroke-width:0.0834247"
       d="m 72.935845,54.787506 -1.919264,1.919263 -1.919261,1.919261 0.19947,0.199472 h 1.440738 l 1.198893,-1.198377 1.919264,-1.919261 z" />
    <path
       id="rect1210-09-7-1-5-4-9-6-5-7-45"
       style="fill:#ffcc00;fill-opacity:1;stroke:none;stroke-width:0.0834247"
       d="m 70.364984,74.329342 -0.165884,0.165881 -1.919261,1.919263 0.19947,0.199472 h 1.440741 l 1.198893,-1.198377 0.721918,-0.721921 h -1.475877 z" />
    <path
       id="rect1210-09-7-1-5-4-9-6-5-7-4"
       style="fill:#ffcc00;fill-opacity:1;stroke:none;stroke-width:0.0834247"
       d="m 80.971078,82.630237 -1.919264,-1.919264 -1.919262,-1.919261 0.199471,-0.199472 h 1.440738 l 1.198892,1.198377 1.919264,1.919261 z" />
    <path
       id="rect1210-09-7-1-5-4-9-6-5-7-4-4"
       style="fill:#ffcc00;fill-opacity:1;stroke:none;stroke-width:0.0834247"
       d="m 83.793338,61.561884 -1.919264,-1.919264 -1.919262,-1.919261 0.199471,-0.199472 h 1.440738 l 1.198892,1.198377 1.919264,1.919261 z" />
    <path
       id="rect1210-09-7-1-5-4-9-6-5-7-4-4-4"
       style="fill:#ffcc00;fill-opacity:1;stroke:none;stroke-width:0.0834247"
       d="m 80.667713,46.577032 v 1.1591 l 0.95963,0.959634 1.919264,1.919261 0.91984,-0.920356 -1.919261,-1.919264 -1.198896,-1.198375 z" />
    <path
       id="rect1210-09-7-1-5-4-9-6-5-7-4-4-4-0"
       style="fill:#ffcc00;fill-opacity:1;stroke:none;stroke-width:0.0834247"
       d="m 78.049785,43.055799 1.079521,1.079521 1.919261,1.919264 0.919843,-0.920359 -1.919264,-1.919263 -0.159163,-0.159163 z" />
    <path
       id="rect1210-09-7-1-7-7-5-1-0-1"
       style="fill:#ffcc00;fill-opacity:1;stroke:none;stroke-width:0.138662"
       d="m 79.350647,39.66845 h -7.497851 -7.498501 v 1.301021 h 7.498501 7.497851 z" />
    <path
       id="rect1210-09-7-1-7-7-5-1-0-1-2"
       style="fill:#ffcc00;fill-opacity:1;stroke:none;stroke-width:0.0686944"
       d="M 90.699516,39.85106 H 88.859318 87.01896 v 1.301021 h 1.840358 1.840198 z" />
    <path
       id="rect1210-09-7-1-5-4-9-6-5-7-4-4-4-0-2"
       style="fill:#ffcc00;fill-opacity:1;stroke:none;stroke-width:0.0834822"
       d="m 78.049885,39.66845 1.079521,1.081011 1.919261,1.92191 0.919843,-0.921627 -1.919264,-1.921911 -0.159163,-0.159383 z" />
    <path
       id="rect1210-09-7-1-5-4-9-6-5-7-4-4-4-0-0"
       style="fill:#ffcc00;fill-opacity:1;stroke:none;stroke-width:0.0834247"
       d="m 88.859318,39.85106 1.079521,1.079521 1.919261,1.919264 0.919843,-0.920358 -1.919264,-1.919264 -0.159163,-0.159163 z" />
    <path
       id="rect1210-09-7-1-5-4-9-6-5-7-4-4-4-0-0-58"
       style="fill:#ffcc00;fill-opacity:1;stroke:none;stroke-width:0.0834247"
       d="m 94.33268,39.85106 1.079521,1.079521 1.919264,1.919264 0.91984,-0.920358 -1.919264,-1.919264 -0.159163,-0.159163 z" />
    <path
       id="rect1210-09-7-1-5-4-9-6-5-7-4-9"
       style="fill:#ffcc00;fill-opacity:1;stroke:none;stroke-width:0.0834247"
       d="m 45.393381,76.593802 v 1.280544 h -0.559657 l 0.09974,0.09973 1.919261,1.919263 0.91984,-0.920358 -1.919261,-1.919261 z" />
    <path
       id="rect1210-09-7-1-5-4-9-6-5-7-4-6"
       style="fill:#ffcc00;fill-opacity:1;stroke:none;stroke-width:0.0834247"
       d="m 68.479309,72.575962 -0.19947,0.199469 1.919261,1.919264 0.45992,0.459919 V 74.69366 h 1.379244 L 71.118943,73.774336 69.92005,72.575962 Z" />
    <path
       id="rect1210-09-7-1-5-4-9-6-5-7-1"
       style="fill:#ffcc00;fill-opacity:1;stroke:none;stroke-width:0.0834247"
       d="m 54.77435,60.260864 -1.919264,1.919264 -1.919261,1.919261 0.19947,0.199472 h 1.440738 l 1.198893,-1.198377 1.919264,-1.919261 z" />
    <path
       d="m 79.068155,68.470901 h -2.567487 -2.56771 v 1.301022 h 2.56771 2.567487 z"
       style="fill:#ffcc00;fill-opacity:1;stroke:none;stroke-width:0.0811413"
       id="rect1210-09-7-1-5-4-9-3-0-2" />
    <path
       d="m 86.694187,71.207583 h -2.714009 -2.714244 v 1.30102 h 2.714244 2.714009 z"
       style="fill:#ffcc00;fill-opacity:1;stroke:none;stroke-width:0.0834246"
       id="rect1210-09-7-1-5-4-9-6-4" />
    <path
       id="rect1210-09-7-1-5-4-9-6-5-8"
       style="fill:#ffcc00;fill-opacity:1;stroke:none;stroke-width:0.0834247"
       d="m 81.266126,71.207361 -1.919264,1.919264 -1.919261,1.919261 0.199469,0.199472 h 1.440739 l 1.198893,-1.198377 1.919264,-1.919261 z" />
    <path
       d="m 79.068155,73.94426 h -4.204442 -4.204808 v 1.301023 h 4.204808 4.204442 z"
       style="fill:#ffcc00;fill-opacity:1;stroke:none;stroke-width:0.103835"
       id="rect1210-09-7-1-5-4-9-3-0-2-2" />
    <path
       d="M 71.46076,68.470595 H 56.506664 41.551284 v 1.30102 h 14.95538 14.954096 z"
       style="fill:#ffcc00;fill-opacity:1;stroke:none;stroke-width:0.195825"
       id="rect1210-09-7-1-5-4-9-3-0-2-0" />
    <path
       d="M 97.488345,84.827516 H 82.534248 67.578869 v 1.30102 h 14.955379 14.954097 z"
       style="fill:#ffcc00;fill-opacity:1;stroke:none;stroke-width:0.195825"
       id="rect1210-09-7-1-5-4-9-3-0-2-0-2" />
    <path
       d="m 140.92888,84.827514 h -13.39721 -13.39836 v 1.30102 h 13.39836 13.39721 z"
       style="fill:#ffcc00;fill-opacity:1;stroke:none;stroke-width:0.185351"
       id="rect1210-09-7-1-5-4-9-3-0-2-0-2-6" />
    <path
       d="m 134.61877,81.709877 h -9.06474 -9.06552 v 1.30102 h 9.06552 9.06474 z"
       style="fill:#ffcc00;fill-opacity:1;stroke:none;stroke-width:0.152463"
       id="rect1210-09-7-1-5-4-9-3-0-2-0-2-6-1" />
    <path
       id="rect1210-09-7-1-0-2-2-0"
       style="fill:#ffcc00;fill-opacity:1;stroke:none;stroke-width:0.207984"
       d="M 86.694187,54.787506 H 69.825323 52.954993 v 1.30102 h 16.87033 16.868864 z" />
    <path
       id="rect1210-09-7-1-0-2-2-0-19"
       style="fill:#ffcc00;fill-opacity:1;stroke:none;stroke-width:0.0607826"
       d="m 81.595021,57.523887 h -1.440738 -1.440864 v 1.30102 h 1.440864 1.440738 z" />
    <path
       id="rect1210-09-7-1-0-2-2-0-7"
       style="fill:#ffcc00;fill-opacity:1;stroke:none;stroke-width:0.199609"
       d="M 89.659786,81.709878 H 74.122049 58.582962 v 1.30102 h 15.539087 15.537737 z" />
    <path
       id="rect1210-09-7-1-0-2-2-0-9"
       style="fill:#ffcc00;fill-opacity:1;stroke:none;stroke-width:0.151323"
       d="m 73.310832,49.314148 h -8.929568 -8.930342 v 1.30102 h 8.930342 8.929568 z" />
    <path
       id="path11628"
       style="fill:#ffcc00;fill-opacity:1;stroke-width:0.266049"
       d="m 75.925659,46.577785 a 3.38719,3.38719 0 0 0 -3.386873,3.386873 3.38719,3.38719 0 0 0 3.386873,3.387388 3.38719,3.38719 0 0 0 3.387389,-3.387388 3.38719,3.38719 0 0 0 -3.387389,-3.386873 z m 0,1.300694 a 2.0861702,2.0861702 0 0 1 2.086176,2.086179 2.0861702,2.0861702 0 0 1 -2.086176,2.086176 2.0861702,2.0861702 0 0 1 -2.08566,-2.086176 2.0861702,2.0861702 0 0 1 2.08566,-2.086179 z" />
    <path
       id="path11628-7"
       style="fill:#ffcc00;fill-opacity:1;stroke-width:0.266049"
       d="m 59.663039,40.319277 a 3.38719,3.38719 0 0 0 -3.386873,3.386873 3.38719,3.38719 0 0 0 3.386873,3.387389 3.38719,3.38719 0 0 0 3.387389,-3.387389 3.38719,3.38719 0 0 0 -3.387389,-3.386873 z m 0,1.300694 a 2.0861702,2.0861702 0 0 1 2.086176,2.086179 2.0861702,2.0861702 0 0 1 -2.086176,2.086177 2.0861702,2.0861702 0 0 1 -2.08566,-2.086177 2.0861702,2.0861702 0 0 1 2.08566,-2.086179 z" />
    <path
       id="path11628-7-97"
       style="fill:#ffcc00;fill-opacity:1;stroke-width:0.266049"
       d="m 79.130148,30.879416 a 3.38719,3.38719 0 0 0 -3.386873,3.386873 3.38719,3.38719 0 0 0 3.386873,3.387389 3.38719,3.38719 0 0 0 3.387389,-3.387389 3.38719,3.38719 0 0 0 -3.387389,-3.386873 z m 0,1.300694 a 2.0861702,2.0861702 0 0 1 2.086175,2.086179 2.0861702,2.0861702 0 0 1 -2.086175,2.086177 2.0861702,2.0861702 0 0 1 -2.085661,-2.086177 2.0861702,2.0861702 0 0 1 2.085661,-2.086179 z" />
    <path
       id="path11628-7-8"
       style="fill:#ffcc00;fill-opacity:1;stroke-width:0.266049"
       d="m 38.693062,65.734231 a 3.38719,3.38719 0 0 0 -3.386873,3.386873 3.38719,3.38719 0 0 0 3.386873,3.387389 3.38719,3.38719 0 0 0 3.387389,-3.387388 3.38719,3.38719 0 0 0 -3.387389,-3.386874 z m 0,1.300694 a 2.0861702,2.0861702 0 0 1 2.086176,2.086179 2.0861702,2.0861702 0 0 1 -2.086176,2.086177 2.0861702,2.0861702 0 0 1 -2.08566,-2.086177 2.0861702,2.0861702 0 0 1 2.08566,-2.086179 z" />
    <path
       id="path11628-7-8-4"
       style="fill:#ffcc00;fill-opacity:1;stroke-width:0.266049"
       d="m 36.090836,49.314759 a 3.38719,3.38719 0 0 0 -3.386873,3.386873 3.38719,3.38719 0 0 0 3.386873,3.38739 3.38719,3.38719 0 0 0 3.387389,-3.387388 3.38719,3.38719 0 0 0 -3.387389,-3.386875 z m 0,1.300694 a 2.0861702,2.0861702 0 0 1 2.086176,2.086179 2.0861702,2.0861702 0 0 1 -2.086176,2.086177 2.0861702,2.0861702 0 0 1 -2.08566,-2.086177 2.0861702,2.0861702 0 0 1 2.08566,-2.086179 z" />
    <g
       id="g13699"
       transform="translate(-5.4148351,6.6899678)"
       style="fill:#ffffff;fill-opacity:1">
      <text
         xml:space="preserve"
         style="font-style:normal;font-weight:normal;font-size:22.5778px;line-height:1.25;font-family:sans-serif;fill:#ffffff;fill-opacity:1;stroke:none;stroke-width:0.264583"
         x="60.859676"
         y="101.20058"
         id="text5988"><tspan
           sodipodi:role="line"
           id="tspan5986"
           style="font-style:normal;font-variant:normal;font-weight:bold;font-stretch:normal;font-size:22.5778px;font-family:sans-serif;-inkscape-font-specification:'sans-serif Bold';fill:#ffffff;fill-opacity:1;stroke-width:0.264583"
           x="60.859676"
           y="101.20058">EMBArk</tspan></text>
    </g>
    <path
       id="path11067"
       style="fill:#ffcc00;fill-opacity:1;stroke-width:0.261766"
       d="m 72.81599,67.012963 a 2.1086066,2.1086066 0 0 0 -2.108399,2.108398 2.1086066,2.1086066 0 0 0 2.108399,2.108914 2.1086066,2.1086066 0 0 0 2.108917,-2.108914 2.1086066,2.1086066 0 0 0 -2.108917,-2.108398 z m 0.02274,1.193726 a 0.91509383,0.91509383 0 0 1 0.915191,0.914672 0.91509383,0.91509383 0 0 1 -0.915191,0.915188 0.91509383,0.91509383 0 0 1 -0.915188,-0.915188 0.91509383,0.91509383 0 0 1 0.915188,-0.914672 z" />
    <path
       id="path11067-2"
       style="fill:#ffcc00;fill-opacity:1;stroke-width:0.261766"
       d="m 44.316122,74.346053 a 2.1086066,2.1086066 0 0 0 -2.108399,2.108398 2.1086066,2.1086066 0 0 0 2.108399,2.108914 2.1086066,2.1086066 0 0 0 2.108917,-2.108914 2.1086066,2.1086066 0 0 0 -2.108917,-2.108398 z m 0.02274,1.193725 a 0.91509383,0.91509383 0 0 1 0.915191,0.914673 0.91509383,0.91509383 0 0 1 -0.915191,0.915187 0.91509383,0.91509383 0 0 1 -0.915188,-0.915188 0.91509383,0.91509383 0 0 1 0.915188,-0.914672 z" />
    <path
       id="path11067-8"
       style="fill:#ffcc00;fill-opacity:1;stroke-width:0.261766"
       d="m 83.769569,74.939989 a 2.1086066,2.1086066 0 0 0 -2.10839,2.108398 2.1086066,2.1086066 0 0 0 2.10839,2.108914 2.1086066,2.1086066 0 0 0 2.10892,-2.108914 2.1086066,2.1086066 0 0 0 -2.10892,-2.108398 z m 0.0227,1.193726 a 0.91509383,0.91509383 0 0 1 0.9152,0.914672 0.91509383,0.91509383 0 0 1 -0.9152,0.915188 0.91509383,0.91509383 0 0 1 -0.91518,-0.915188 0.91509383,0.91509383 0 0 1 0.91518,-0.914672 z" />
    <path
       id="path11067-7"
       style="fill:#ffcc00;fill-opacity:1;stroke-width:0.261766"
       d="m 29.311338,61.539952 a 2.1086066,2.1086066 0 0 0 -2.108399,2.108398 2.1086066,2.1086066 0 0 0 2.108399,2.108914 2.1086066,2.1086066 0 0 0 2.108918,-2.108914 2.1086066,2.1086066 0 0 0 -2.108918,-2.108398 z m 0.02274,1.193726 a 0.91509383,0.91509383 0 0 1 0.915191,0.914672 0.91509383,0.91509383 0 0 1 -0.915191,0.915188 0.91509383,0.91509383 0 0 1 -0.915188,-0.915188 0.91509383,0.91509383 0 0 1 0.915188,-0.914672 z" />
    <path
       id="path11067-7-9"
       style="fill:#ffcc00;fill-opacity:1;stroke-width:0.261766"
       d="m 47.889346,56.066287 a 2.1086066,2.1086066 0 0 0 -2.108399,2.108398 2.1086066,2.1086066 0 0 0 2.108399,2.108914 2.1086066,2.1086066 0 0 0 2.108919,-2.108914 2.1086066,2.1086066 0 0 0 -2.108919,-2.108398 z m 0.02274,1.193726 a 0.91509383,0.91509383 0 0 1 0.915191,0.914672 0.91509383,0.91509383 0 0 1 -0.915191,0.915188 0.91509383,0.91509383 0 0 1 -0.915188,-0.915188 0.91509383,0.91509383 0 0 1 0.915188,-0.914672 z" />
    <path
       id="path11067-7-9-3"
       style="fill:#ffcc00;fill-opacity:1;stroke-width:0.261766"
       d="m 85.968375,38.393172 a 2.1086066,2.1086066 0 0 0 -2.108399,2.108399 2.1086066,2.1086066 0 0 0 2.108399,2.108913 2.1086066,2.1086066 0 0 0 2.108919,-2.108913 2.1086066,2.1086066 0 0 0 -2.108919,-2.108399 z m 0.02274,1.193726 a 0.91509383,0.91509383 0 0 1 0.915191,0.914673 0.91509383,0.91509383 0 0 1 -0.915191,0.915188 0.91509383,0.91509383 0 0 1 -0.915188,-0.915188 0.91509383,0.91509383 0 0 1 0.915188,-0.914673 z" />
    <path
       id="path11067-7-9-3-8"
       style="fill:#ffcc00;fill-opacity:1;stroke-width:0.261766"
       d="m 127.11622,56.06637 a 2.1086066,2.1086066 0 0 0 -2.1084,2.108399 2.1086066,2.1086066 0 0 0 2.1084,2.108913 2.1086066,2.1086066 0 0 0 2.10892,-2.108913 2.1086066,2.1086066 0 0 0 -2.10892,-2.108399 z m 0.0227,1.193725 a 0.91509383,0.91509383 0 0 1 0.91519,0.914674 0.91509383,0.91509383 0 0 1 -0.91519,0.915188 0.91509383,0.91509383 0 0 1 -0.91519,-0.915188 0.91509383,0.91509383 0 0 1 0.91519,-0.914674 z" />
    <path
       id="path11067-7-9-3-8-8"
       style="fill:#ffcc00;fill-opacity:1;stroke-width:0.261766"
       d="m 108.55797,82.719117 a 2.1086066,2.1086066 0 0 0 -2.1084,2.108399 2.1086066,2.1086066 0 0 0 2.1084,2.108913 2.1086066,2.1086066 0 0 0 2.10892,-2.108913 2.1086066,2.1086066 0 0 0 -2.10892,-2.108399 z m 0.0227,1.193725 a 0.91509383,0.91509383 0 0 1 0.91519,0.914674 0.91509383,0.91509383 0 0 1 -0.91519,0.915188 0.91509383,0.91509383 0 0 1 -0.91519,-0.915188 0.91509383,0.91509383 0 0 1 0.91519,-0.914674 z" />
    <path
       id="path11067-7-9-3-0"
       style="fill:#ffcc00;fill-opacity:1;stroke-width:0.261766"
       d="m 96.211254,31.899401 a 2.1086066,2.1086066 0 0 0 -2.108399,2.108399 2.1086066,2.1086066 0 0 0 2.108399,2.108913 2.1086066,2.1086066 0 0 0 2.108921,-2.108913 2.1086066,2.1086066 0 0 0 -2.108921,-2.108399 z m 0.02274,1.193726 a 0.91509383,0.91509383 0 0 1 0.915191,0.914673 0.91509383,0.91509383 0 0 1 -0.915191,0.915188 0.91509383,0.91509383 0 0 1 -0.915188,-0.915188 0.91509383,0.91509383 0 0 1 0.915188,-0.914673 z" />
    <ellipse
       style="fill:#ffcc00;fill-opacity:1;stroke-width:0.277951"
       id="path12153"
       cx="44.877903"
       cy="66.396271"
       rx="0.93767363"
       ry="0.89347595" />
    <ellipse
       style="fill:#ffcc00;fill-opacity:1;stroke-width:0.277951"
       id="path12153-8"
       cx="94.794914"
       cy="82.411705"
       rx="0.93767363"
       ry="0.89347595" />
    <ellipse
       style="fill:#ffcc00;fill-opacity:1;stroke-width:0.277951"
       id="path12153-6"
       cx="56.861511"
       cy="63.64835"
       rx="0.93767363"
       ry="0.89347595" />
    <ellipse
       style="fill:#ffcc00;fill-opacity:1;stroke-width:0.277951"
       id="path12153-6-2"
       cx="52.546486"
       cy="55.438015"
       rx="0.93767363"
       ry="0.89347595" />
    <path
       d="M 65.423872,52.051124 H 52.187038 38.949058 v 1.301021 h 13.23798 13.236834 z"
       style="fill:#ffcc00;fill-opacity:1;stroke:none;stroke-width:0.184238"
       id="rect1210-09-7-1-5-4-9-3-0-65" />
    <path
       id="rect1210-09-7-1-5-4-9-6-5-7-0"
       style="fill:#ffcc00;fill-opacity:1;stroke:none;stroke-width:0.0834247"
       d="m 67.622189,49.314148 -1.919264,1.919264 -1.919261,1.919261 0.19947,0.199472 h 1.440738 l 1.198893,-1.198377 1.919264,-1.919261 z" />
    <ellipse
       style="fill:#ffcc00;fill-opacity:1;stroke-width:0.277951"
       id="path12153-6-7"
       cx="55.45092"
       cy="49.964657"
       rx="0.93767363"
       ry="0.89347595" />
    <path
       d="m 69.919931,75.312749 h -7.975193 -7.975883 v 1.301021 h 7.975883 7.975193 z"
       style="fill:#ffcc00;fill-opacity:1;stroke:none;stroke-width:0.143007"
       id="rect1210-09-7-1-5-4-9-3-0-3" />
    <ellipse
       style="fill:#ffcc00;fill-opacity:1;stroke-width:0.277951"
       id="path12153-6-4"
       cx="54.089516"
       cy="75.963257"
       rx="0.93767363"
       ry="0.89347595" />
    <ellipse
       style="fill:#ffcc00;fill-opacity:1;stroke-width:0.277951"
       id="path12153-6-4-5"
       cx="58.582962"
       cy="82.360382"
       rx="0.93767363"
       ry="0.89347595" />
    <ellipse
       style="fill:#ffcc00;fill-opacity:1;stroke-width:0.277951"
       id="path12153-6-4-2"
       cx="78.736336"
       cy="58.174397"
       rx="0.93767363"
       ry="0.89347595" />
    <path
       id="rect1210-09-7-1-5-4-9-6-5-7-4-4-2"
       style="fill:#ffcc00;fill-opacity:1;stroke:none;stroke-width:0.0834247"
       d="m 70.685483,50.27378 -1.919264,-1.919264 -1.919262,-1.919261 0.199471,-0.199472 h 1.440738 l 1.198892,1.198377 1.919264,1.919261 z" />
    <path
       id="rect1210-09-7-1-0-2-2-0-19-6"
       style="fill:#ffcc00;fill-opacity:1;stroke:none;stroke-width:0.0607826"
       d="m 68.487166,46.235783 h -1.440738 -1.440864 v 1.30102 h 1.440864 1.440738 z" />
    <ellipse
       style="fill:#ffcc00;fill-opacity:1;stroke-width:0.277951"
       id="path12153-6-4-2-6"
       cx="65.628487"
       cy="46.886292"
       rx="0.93767363"
       ry="0.89347595" />
    <ellipse
       style="fill:#ffcc00;fill-opacity:1;stroke-width:0.277951"
       id="path12153-6-4-2-6-2"
       cx="64.354294"
       cy="40.318958"
       rx="0.93767363"
       ry="0.89347595" />
    <ellipse
       style="fill:#ffcc00;fill-opacity:1;stroke-width:0.277951"
       id="path12153-6-4-2-6-2-48"
       cx="84.65493"
       cy="36.344715"
       rx="0.93767363"
       ry="0.89347595" />
    <path
       d="M 69.919932,72.575773 H 59.021604 48.122334 v 1.301021 h 10.89927 10.898328 z"
       style="fill:#ffcc00;fill-opacity:1;stroke:none;stroke-width:0.167173"
       id="rect1210-09-7-1-5-4-9-3-0-3-3" />
    <ellipse
       style="fill:#ffcc00;fill-opacity:1;stroke-width:0.277951"
       id="path12153-6-4-8"
       cx="47.713825"
       cy="73.22628"
       rx="0.93767363"
       ry="0.89347595" />
    <path
       id="rect1210-09-7-1-7-7-5-1-0-11"
       style="fill:#ffcc00;fill-opacity:1;stroke:none;stroke-width:0.149545"
       d="m 104.50216,29.778798 h 8.72092 8.72167 v 1.301021 h -8.72167 -8.72092 z" />
    <path
       d="m 134.22155,60.260863 h 15.95922 15.96062 v 1.30102 h -15.96062 -15.95922 z"
       style="fill:#ffcc00;fill-opacity:1;stroke:none;stroke-width:0.2023"
       id="rect1210-09-7-1-5-4-9-2-2" />
    <path
       d="m 132.38645,47.022775 h 10.89834 10.89927 v 1.301021 h -10.89927 -10.89834 z"
       style="fill:#ffcc00;fill-opacity:1;stroke:none;stroke-width:0.167173"
       id="rect1210-09-7-1-5-4-9-3-0-6-3" />
    <path
       id="rect1210-09-7-1-5-4-9-3-0-5-3"
       style="fill:#ffcc00;fill-opacity:1;stroke:none;stroke-width:0.171469"
       d="m 136.4069,75.854957 c 0,0 1.46305,1.463045 1.91927,1.919261 0.41529,0.41529 0.81803,0.818039 0.81803,0.818039 h 10.92647 11.46649 v 1.300694 h -11.46649 -10.02471 -1.44074 l -1.19889,-1.198375 -1.91927,-1.919263 z"
       sodipodi:nodetypes="cscccccccccc" />
    <path
       id="rect1210-09-7-1-5-4-9-6-5-74-8"
       style="fill:#ffcc00;fill-opacity:1;stroke:none;stroke-width:0.0834247"
       d="m 122.05604,60.260864 1.91927,1.919264 1.91926,1.919261 -0.19947,0.199471 h -1.44074 l -1.19889,-1.198375 -1.91927,-1.919262 z" />
    <path
       id="rect1210-09-7-1-5-4-9-6-5-74-8-4"
       style="fill:#ffcc00;fill-opacity:1;stroke:none;stroke-width:0.0834247"
       d="m 108.81683,78.972901 1.91927,1.919264 1.91926,1.919261 -0.19947,0.199471 h -1.44074 l -1.19889,-1.198375 -1.91927,-1.919262 z" />
    <path
       id="rect1210-09-7-1-5-4-9-6-5-7-45-4"
       style="fill:#ffcc00;fill-opacity:1;stroke:none;stroke-width:0.0834247"
       d="m 135.72732,52.435906 0.16589,0.165881 1.91926,1.919264 -0.19947,0.199472 h -1.44074 l -1.1989,-1.198378 -0.72191,-0.721921 h 1.47587 z" />
    <path
       id="rect1210-09-7-1-5-4-9-6-5-7-4-5"
       style="fill:#ffcc00;fill-opacity:1;stroke:none;stroke-width:0.0834247"
       d="m 132.02323,64.298859 1.91926,-1.919263 1.91927,-1.919261 -0.19948,-0.199472 h -1.44073 l -1.1989,1.198377 -1.91926,1.919261 z" />
    <path
       d="m 138.50443,44.2858 h 5.85687 5.85739 v 1.30102 h -5.85739 -5.85687 z"
       style="fill:#ffcc00;fill-opacity:1;stroke:none;stroke-width:0.122553"
       id="rect1210-09-7-1-5-4-9-2-2-3" />
    <path
       id="rect1210-09-7-1-5-4-9-6-5-7-4-5-3"
       style="fill:#ffcc00;fill-opacity:1;stroke:none;stroke-width:0.0834247"
       d="m 136.30611,48.323796 1.91927,-1.919263 1.91927,-1.919261 -0.19948,-0.199472 h -1.44073 l -1.1989,1.198377 -1.91927,1.919261 z" />
    <path
       id="rect1210-09-7-1-5-4-9-6-5-7-4-5-7"
       style="fill:#ffcc00;fill-opacity:1;stroke:none;stroke-width:0.0834247"
       d="m 120.5523,83.010897 1.91926,-1.919263 1.91927,-1.919261 -0.19948,-0.199472 h -1.44073 l -1.1989,1.198377 -1.91926,1.919261 z" />
    <path
       id="rect1210-09-7-1-5-4-9-6-5-7-4-5-7-1"
       style="fill:#ffcc00;fill-opacity:1;stroke:none;stroke-width:0.0834247"
       d="m 123.67045,79.893259 1.91926,-1.919263 1.91927,-1.919261 -0.19948,-0.199472 h -1.44073 l -1.1989,1.198377 -1.91925,1.919261 z" />
    <path
       id="rect1210-09-7-1-5-4-9-6-5-7-4-4-4-0-07"
       style="fill:#ffcc00;fill-opacity:1;stroke:none;stroke-width:0.0834247"
       d="m 106.34235,29.778798 -1.07952,1.079521 -1.91925,1.919264 -0.91984,-0.920358 1.91926,-1.919264 0.15916,-0.159163 z" />
    <path
       id="rect1210-09-7-1-7-7-5-1-0-1-8"
       style="fill:#ffcc00;fill-opacity:1;stroke:none;stroke-width:0.117346"
       d="m 105.04148,26.393658 h 5.36981 5.37028 v 1.301021 h -5.37028 -5.36981 z" />
    <path
       id="rect1210-09-7-1-7-7-5-1-0-11-9"
       style="fill:#ffcc00;fill-opacity:1;stroke:none;stroke-width:0.102557"
       d="m 111.01515,33.16736 h 4.1015 4.10186 v 1.301021 h -4.10186 -4.1015 z" />
    <path
       id="rect1210-09-7-1-7-7-5-1-0-11-9-0"
       style="fill:#ffcc00;fill-opacity:1;stroke:none;stroke-width:0.187254"
       d="m 116.48851,38.811846 h 13.67334 13.67455 v 1.301021 h -13.67455 -13.67334 z" />
    <path
       id="rect1210-09-7-1-7-7-5-1-0-11-9-0-6"
       style="fill:#ffcc00;fill-opacity:1;stroke:none;stroke-width:0.122158"
       d="m 121.68795,41.548822 h 5.81913 5.81962 v 1.301021 h -5.81962 -5.81913 z" />
    <path
       id="rect1210-09-7-1-7-7-5-1-0-11-9-0-6-5"
       style="fill:#ffcc00;fill-opacity:1;stroke:none;stroke-width:0.085961"
       d="m 124.42493,44.285798 h 2.88148 2.88173 v 1.301021 h -2.88173 -2.88148 z" />
    <path
       id="rect1210-09-7-1-7-7-5-1-0-11-9-0-1"
       style="fill:#ffcc00;fill-opacity:1;stroke:none;stroke-width:0.102557"
       d="m 124.10228,36.074866 h 4.1015 4.10186 v 1.301021 h -4.10186 -4.1015 z" />
    <path
       id="rect1210-09-7-1-7-7-5-1-0-1-8-3"
       style="fill:#ffcc00;fill-opacity:1;stroke:none;stroke-width:0.117346"
       d="m 105.16813,29.778798 h 5.36981 5.37028 v 1.301021 h -5.37028 -5.36981 z" />
    <path
       id="rect1210-09-7-1-5-4-9-6-5-7-4-4-4-0-2-4"
       style="fill:#ffcc00;fill-opacity:1;stroke:none;stroke-width:0.0834822"
       d="m 106.34224,26.393658 -1.07952,1.081011 -1.91926,1.92191 -0.91983,-0.921627 1.91925,-1.921911 0.15916,-0.159383 z" />
    <path
       id="rect1210-09-7-1-5-4-9-6-5-7-4-9-4"
       style="fill:#ffcc00;fill-opacity:1;stroke:none;stroke-width:0.0834247"
       d="m 167.6007,58.262336 v 1.280543 h 0.55966 l -0.0997,0.09974 -1.91927,1.919264 -0.91984,-0.920359 1.91927,-1.919261 z" />
    <path
       id="rect1210-09-7-1-5-4-9-6-5-7-4-6-0"
       style="fill:#ffcc00;fill-opacity:1;stroke:none;stroke-width:0.0834247"
       d="m 137.613,50.682526 0.19947,0.199469 -1.91926,1.919264 -0.45992,0.45992 v -0.460955 h -1.37925 l 0.91932,-0.919323 1.1989,-1.198375 z" />
    <path
       id="rect1210-09-7-1-5-4-9-6-5-7-1-5"
       style="fill:#ffcc00;fill-opacity:1;stroke:none;stroke-width:0.0834247"
       d="m 130.18814,44.285798 1.91926,1.919264 1.91927,1.919261 -0.19947,0.199472 h -1.44075 l -1.19889,-1.198377 -1.91926,-1.919261 z" />
    <path
       id="rect1210-09-7-1-5-4-9-6-5-8-8"
       style="fill:#ffcc00;fill-opacity:1;stroke:none;stroke-width:0.0834247"
       d="m 124.82618,49.313925 1.91926,1.919264 1.91927,1.919261 -0.19947,0.199472 h -1.44074 l -1.19889,-1.198377 -1.91927,-1.919261 z" />
    <path
       id="rect1210-09-7-1-5-4-9-6-5-8-8-3"
       style="fill:#ffcc00;fill-opacity:1;stroke:none;stroke-width:0.0834247"
       d="m 119.48963,38.811846 1.91926,1.919264 1.91927,1.919261 -0.19947,0.199472 h -1.44074 l -1.19889,-1.198377 -1.91927,-1.919261 z" />
    <path
       id="rect1210-09-7-1-5-4-9-6-5-8-8-3-6"
       style="fill:#ffcc00;fill-opacity:1;stroke:none;stroke-width:0.0834247"
       d="m 122.22661,41.548822 1.91926,1.919264 1.91927,1.919261 -0.19947,0.199472 h -1.44074 l -1.19889,-1.198377 -1.91927,-1.919261 z" />
    <path
       id="rect1210-09-7-1-5-4-9-6-5-8-8-8"
       style="fill:#ffcc00;fill-opacity:1;stroke:none;stroke-width:0.0834247"
       d="m 124.82626,54.787381 -0.91984,0.920359 1.8526,1.852599 a 1.4910613,1.4910613 0 0 1 1.00614,-0.834057 l -0.0196,-0.01963 z m 3.73879,3.73879 a 1.4910613,1.4910613 0 0 1 -0.10749,0.299207 h 0.008 l 0.19948,-0.199469 z" />
    <path
       d="m 127.02415,52.050824 h 4.20444 4.20481 v 1.301023 h -4.20481 -4.20444 z"
       style="fill:#ffcc00;fill-opacity:1;stroke:none;stroke-width:0.103835"
       id="rect1210-09-7-1-5-4-9-3-0-2-2-1" />
    <path
       id="rect1210-09-7-1-5-4-9-3-0-2-2-1-0"
       style="fill:#ffcc00;fill-opacity:1;stroke:none;stroke-width:0.223841"
       d="m 128.45995,57.524168 a 6.9292683,1.4910613 0 0 1 0.69404,0.650605 6.9292683,1.4910613 0 0 1 -0.69643,0.650605 h 12.8793 19.54107 v -1.30121 h -19.54107 z" />
    <path
       id="rect1210-09-7-1-0-2-2-0-7-8"
       style="fill:#ffcc00;fill-opacity:1;stroke:none;stroke-width:0.171995"
       d="m 124.25436,62.997841 h 11.53609 11.53708 v 1.301018 h -11.53708 -11.53609 z" />
    <path
       id="rect1210-09-7-1-0-2-2-0-7-8-1"
       style="fill:#ffcc00;fill-opacity:1;stroke:none;stroke-width:0.145556"
       d="m 154.75693,65.734223 h 8.26201 8.26272 v 1.301018 h -8.26272 -8.26201 z" />
    <path
       id="path11628-5"
       style="fill:#ffcc00;fill-opacity:1;stroke-width:0.266049"
       d="m 146.69462,36.075483 a 3.38719,3.38719 0 0 1 3.38687,3.386873 3.38719,3.38719 0 0 1 -3.38687,3.387388 3.38719,3.38719 0 0 1 -3.38739,-3.387388 3.38719,3.38719 0 0 1 3.38739,-3.386873 z m 0,1.300694 a 2.0861702,2.0861702 0 0 0 -2.08618,2.086179 2.0861702,2.0861702 0 0 0 2.08618,2.086177 2.0861702,2.0861702 0 0 0 2.08566,-2.086177 2.0861702,2.0861702 0 0 0 -2.08566,-2.086179 z" />
    <path
       id="path11628-7-9"
       style="fill:#ffcc00;fill-opacity:1;stroke-width:0.266049"
       d="m 124.72911,27.042276 a 3.38719,3.38719 0 0 1 3.38686,3.386873 3.38719,3.38719 0 0 1 -3.38686,3.387389 3.38719,3.38719 0 0 1 -3.3874,-3.387389 3.38719,3.38719 0 0 1 3.3874,-3.386873 z m 0,1.300694 a 2.0861702,2.0861702 0 0 0 -2.08619,2.086179 2.0861702,2.0861702 0 0 0 2.08619,2.086177 2.0861702,2.0861702 0 0 0 2.08565,-2.086177 2.0861702,2.0861702 0 0 0 -2.08565,-2.086179 z" />
    <path
       id="path11067-2-0"
       style="fill:#ffcc00;fill-opacity:1;stroke-width:0.261766"
       d="m 168.53859,56.153845 a 2.1086066,2.1086066 0 0 1 2.1084,2.108398 2.1086066,2.1086066 0 0 1 -2.1084,2.108914 2.1086066,2.1086066 0 0 1 -2.10892,-2.108914 2.1086066,2.1086066 0 0 1 2.10892,-2.108398 z m -0.0227,1.193725 a 0.91509383,0.91509383 0 0 0 -0.91519,0.914673 0.91509383,0.91509383 0 0 0 0.91519,0.915187 0.91509383,0.91509383 0 0 0 0.91519,-0.915188 0.91509383,0.91509383 0 0 0 -0.91519,-0.914672 z" />
    <path
       id="path11067-8-2"
       style="fill:#ffcc00;fill-opacity:1;stroke-width:0.261766"
       d="m 178.21444,51.961118 a 2.1086066,2.1086066 0 0 1 2.10839,2.108398 2.1086066,2.1086066 0 0 1 -2.10839,2.108914 2.1086066,2.1086066 0 0 1 -2.10892,-2.108914 2.1086066,2.1086066 0 0 1 2.10892,-2.108398 z m -0.0227,1.193726 a 0.91509383,0.91509383 0 0 0 -0.9152,0.914672 0.91509383,0.91509383 0 0 0 0.9152,0.915188 0.91509383,0.91509383 0 0 0 0.91518,-0.915188 0.91509383,0.91509383 0 0 0 -0.91518,-0.914672 z" />
    <path
       id="path11067-7-3"
       style="fill:#ffcc00;fill-opacity:1;stroke-width:0.261766"
       d="m 155.65115,45.564887 a 2.1086066,2.1086066 0 0 1 2.1084,2.108398 2.1086066,2.1086066 0 0 1 -2.1084,2.108914 2.1086066,2.1086066 0 0 1 -2.10891,-2.108914 2.1086066,2.1086066 0 0 1 2.10891,-2.108398 z m -0.0227,1.193725 a 0.91509383,0.91509383 0 0 0 -0.91519,0.914673 0.91509383,0.91509383 0 0 0 0.91519,0.915188 0.91509383,0.91509383 0 0 0 0.91519,-0.915188 0.91509383,0.91509383 0 0 0 -0.91519,-0.914673 z" />
    <path
       id="path11067-7-9-3-7"
       style="fill:#ffcc00;fill-opacity:1;stroke-width:0.261766"
       d="m 135.9673,30.314298 a 2.1086066,2.1086066 0 0 1 2.10839,2.108399 2.1086066,2.1086066 0 0 1 -2.10839,2.108913 2.1086066,2.1086066 0 0 1 -2.10893,-2.108913 2.1086066,2.1086066 0 0 1 2.10893,-2.108399 z m -0.0227,1.193726 a 0.91509383,0.91509383 0 0 0 -0.91519,0.914674 0.91509383,0.91509383 0 0 0 0.91519,0.915188 0.91509383,0.91509383 0 0 0 0.91519,-0.915188 0.91509383,0.91509383 0 0 0 -0.91519,-0.914674 z" />
    <ellipse
       style="fill:#ffcc00;fill-opacity:1;stroke-width:0.277951"
       id="path12153-5"
       cx="-161.33485"
       cy="79.253494"
       rx="0.93767363"
       ry="0.89347595"
       transform="scale(-1,1)" />
    <ellipse
       style="fill:#ffcc00;fill-opacity:1;stroke-width:0.277951"
       id="path12153-5-9"
       cx="-159.77167"
       cy="73.226578"
       rx="0.93767363"
       ry="0.89347595"
       transform="scale(-1,1)" />
    <ellipse
       style="fill:#ffcc00;fill-opacity:1;stroke-width:0.277951"
       id="path12153-5-2"
       cx="-134.61877"
       cy="82.360382"
       rx="0.93767363"
       ry="0.89347595"
       transform="scale(-1,1)" />
    <ellipse
       style="fill:#ffcc00;fill-opacity:1;stroke-width:0.277951"
       id="path12153-5-2-765"
       cx="-150.39995"
       cy="70.489601"
       rx="0.93767363"
       ry="0.89347595"
       transform="scale(-1,1)" />
    <path
       d="m 136.17238,53.419313 h 20.49485 20.49663 v 1.301021 h -20.49663 -20.49485 z"
       style="fill:#ffcc00;fill-opacity:1;stroke:none;stroke-width:0.22925"
       id="rect1210-09-7-1-5-4-9-3-0-3-7" />
    <ellipse
       style="fill:#ffcc00;fill-opacity:1;stroke-width:0.277951"
       id="path12153-6-4-5-6"
       cx="-160.87794"
       cy="58.174774"
       rx="0.93767363"
       ry="0.89347595"
       transform="scale(-1,1)" />
    <ellipse
       style="fill:#ffcc00;fill-opacity:1;stroke-width:0.277951"
       id="path12153-6-4-2-6-5-2"
       cx="-133.44141"
       cy="42.199333"
       rx="0.93767363"
       ry="0.89347595"
       transform="scale(-1,1)" />
    <ellipse
       style="fill:#ffcc00;fill-opacity:1;stroke-width:0.277951"
       id="path12153-6-4-2-6-2-4"
       cx="-115.78157"
       cy="27.044168"
       rx="0.93767363"
       ry="0.89347595"
       transform="scale(-1,1)" />
    <ellipse
       style="fill:#ffcc00;fill-opacity:1;stroke-width:0.277951"
       id="path12153-6-4-2-6-2-4-99"
       cx="-119.21851"
       cy="33.817867"
       rx="0.93767363"
       ry="0.89347595"
       transform="scale(-1,1)" />
    <ellipse
       style="fill:#ffcc00;fill-opacity:1;stroke-width:0.277951"
       id="path12153-6-4-2-6-2-4-9"
       cx="-100.3372"
       cy="32.62236"
       rx="0.93767363"
       ry="0.89347595"
       transform="scale(-1,1)" />
    <path
       d="m 136.17237,50.682337 h 10.89833 10.89928 v 1.301021 H 147.0707 136.17237 Z"
       style="fill:#ffcc00;fill-opacity:1;stroke:none;stroke-width:0.167173"
       id="rect1210-09-7-1-5-4-9-3-0-3-3-7" />
    <path
       id="rect1210-09-7-1-5-4-9-6-5-7-45-4-8"
       style="fill:#ffcc00;fill-opacity:1;stroke:none;stroke-width:0.0834247"
       d="m 128.15727,71.592664 0.16589,0.165881 1.91926,1.919264 -0.19947,0.199472 h -1.44074 l -1.1989,-1.198378 -0.72191,-0.721921 h 1.47587 z" />
    <path
       id="rect1210-09-7-1-5-4-9-6-5-7-4-6-0-1"
       style="fill:#ffcc00;fill-opacity:1;stroke:none;stroke-width:0.0834247"
       d="m 130.04295,69.839284 0.19947,0.199469 -1.91926,1.919264 -0.45992,0.459919 v -0.460955 h -1.37925 l 0.91932,-0.919323 1.1989,-1.198375 z" />
    <path
       d="m 128.60233,72.576071 h 15.58399 15.58533 v 1.301021 h -15.58533 -15.58399 z"
       style="fill:#ffcc00;fill-opacity:1;stroke:none;stroke-width:0.199906"
       id="rect1210-09-7-1-5-4-9-3-0-3-7-7" />
    <path
       d="m 128.60232,69.839095 h 10.89833 10.89928 v 1.301021 h -10.89928 -10.89833 z"
       style="fill:#ffcc00;fill-opacity:1;stroke:none;stroke-width:0.167173"
       id="rect1210-09-7-1-5-4-9-3-0-3-3-7-4" />
    <ellipse
       style="fill:#ffcc00;fill-opacity:1;stroke-width:0.277951"
       id="path12153-6-4-8-6"
       cx="-158.37851"
       cy="51.332848"
       rx="0.93767363"
       ry="0.89347595"
       transform="scale(-1,1)" />
    <ellipse
       style="fill:#ffcc00;fill-opacity:1;stroke-width:0.277951"
       id="path12153-6-4-8-6-8"
       cx="-111.88845"
       cy="39.199757"
       rx="0.93767363"
       ry="0.89347595"
       transform="scale(-1,1)" />
    <ellipse
       style="fill:#ffcc00;fill-opacity:1;stroke-width:0.277951"
       id="path12153-6-4-8-6-8-4"
       cx="-114.2896"
       cy="36.781036"
       rx="0.93767363"
       ry="0.89347595"
       transform="scale(-1,1)" />
    <ellipse
       style="fill:#ffcc00;fill-opacity:1;stroke-width:0.277951"
       id="path12153-6-4-8-6-6"
       cx="-150.2187"
       cy="44.93631"
       rx="0.93767363"
       ry="0.89347595"
       transform="scale(-1,1)" />
    <ellipse
       style="fill:#ffcc00;fill-opacity:1;stroke-width:0.277951"
       id="path12153-6-4-8-6-6-4"
       cx="-130.19824"
       cy="49.964657"
       rx="0.93767363"
       ry="0.89347595"
       transform="scale(-1,1)" />
    <path
       id="rect1210-09-7-1-5-4-9-6-5-74-8-7"
       style="fill:#ffcc00;fill-opacity:1;stroke:none;stroke-width:0.0834247"
       d="m 114.29019,78.972901 1.91927,1.919264 1.91926,1.919261 -0.19947,0.199471 h -1.44074 l -1.19889,-1.198375 -1.91927,-1.919262 z" />
    <path
       id="rect1210-09-7-1-5-4-9-6-5-74-8-7-7"
       style="fill:#ffcc00;fill-opacity:1;stroke:none;stroke-width:0.0834247"
       d="m 111.93499,82.090538 1.91927,1.919264 1.91926,1.919261 -0.19947,0.199471 h -1.44074 l -1.19889,-1.198375 -1.91927,-1.919262 z" />
    <path
       d="m 125.86877,75.855263 h 2.56749 2.56771 v 1.301022 h -2.56771 -2.56749 z"
       style="fill:#ffcc00;fill-opacity:1;stroke:none;stroke-width:0.0811413"
       id="rect1210-09-7-1-5-4-9-3-0-2-01" />
    <path
       d="m 133.47617,75.854957 h 15.90619 15.90757 v 1.30102 h -15.90757 -15.90619 z"
       style="fill:#ffcc00;fill-opacity:1;stroke:none;stroke-width:0.201963"
       id="rect1210-09-7-1-5-4-9-3-0-2-0-5" />
    <path
       id="path11628-7-8-1"
       style="fill:#ffcc00;fill-opacity:1;stroke-width:0.266049"
       d="m 167.37611,73.118594 a 3.38719,3.38719 0 0 1 3.38687,3.386873 3.38719,3.38719 0 0 1 -3.38687,3.387389 3.38719,3.38719 0 0 1 -3.38739,-3.387388 3.38719,3.38719 0 0 1 3.38739,-3.386874 z m 0,1.300694 a 2.0861702,2.0861702 0 0 0 -2.08618,2.086179 2.0861702,2.0861702 0 0 0 2.08618,2.086177 2.0861702,2.0861702 0 0 0 2.08566,-2.086177 2.0861702,2.0861702 0 0 0 -2.08566,-2.086179 z" />
    <path
       id="path11628-7-8-1-7"
       style="fill:#ffcc00;fill-opacity:1;stroke-width:0.266049"
       d="m 174.13988,62.997858 a 3.38719,3.38719 0 0 1 3.38687,3.386873 3.38719,3.38719 0 0 1 -3.38687,3.387389 3.38719,3.38719 0 0 1 -3.38739,-3.387388 3.38719,3.38719 0 0 1 3.38739,-3.386874 z m 0,1.300694 a 2.0861702,2.0861702 0 0 0 -2.08618,2.086179 2.0861702,2.0861702 0 0 0 2.08618,2.086177 2.0861702,2.0861702 0 0 0 2.08566,-2.086177 2.0861702,2.0861702 0 0 0 -2.08566,-2.086179 z" />
    <path
       id="path11067-3"
       style="fill:#ffcc00;fill-opacity:1;stroke-width:0.261766"
       d="m 132.12094,74.397325 a 2.1086066,2.1086066 0 0 1 2.1084,2.108398 2.1086066,2.1086066 0 0 1 -2.1084,2.108914 2.1086066,2.1086066 0 0 1 -2.10892,-2.108914 2.1086066,2.1086066 0 0 1 2.10892,-2.108398 z m -0.0227,1.193726 a 0.91509383,0.91509383 0 0 0 -0.91519,0.914672 0.91509383,0.91509383 0 0 0 0.91519,0.915188 0.91509383,0.91509383 0 0 0 0.91519,-0.915188 0.91509383,0.91509383 0 0 0 -0.91519,-0.914672 z" />
    <path
       id="path11067-3-8"
       style="fill:#ffcc00;fill-opacity:1;stroke-width:0.261766"
       d="m 141.86677,83.369532 a 2.1086066,2.1086066 0 0 1 2.1084,2.108398 2.1086066,2.1086066 0 0 1 -2.1084,2.108914 2.1086066,2.1086066 0 0 1 -2.10892,-2.108914 2.1086066,2.1086066 0 0 1 2.10892,-2.108398 z m -0.0227,1.193726 a 0.91509383,0.91509383 0 0 0 -0.91519,0.914672 0.91509383,0.91509383 0 0 0 0.91519,0.915188 0.91509383,0.91509383 0 0 0 0.91519,-0.915188 0.91509383,0.91509383 0 0 0 -0.91519,-0.914672 z" />
    <path
       id="path11067-3-8-1"
       style="fill:#ffcc00;fill-opacity:1;stroke-width:0.261766"
       d="m 153.33527,64.276335 a 2.1086066,2.1086066 0 0 1 2.1084,2.108397 2.1086066,2.1086066 0 0 1 -2.1084,2.108914 2.1086066,2.1086066 0 0 1 -2.10892,-2.108914 2.1086066,2.1086066 0 0 1 2.10892,-2.108397 z m -0.0227,1.193726 a 0.91509383,0.91509383 0 0 0 -0.91519,0.914671 0.91509383,0.91509383 0 0 0 0.91519,0.915189 0.91509383,0.91509383 0 0 0 0.91519,-0.915189 0.91509383,0.91509383 0 0 0 -0.91519,-0.914671 z" />
    <ellipse
       style="fill:#ffcc00;fill-opacity:1;stroke-width:0.277951"
       id="path12153-5-2-76"
       cx="-147.32755"
       cy="63.64835"
       rx="0.93767363"
       ry="0.89347595"
       transform="scale(-1,1)" />
  </g>
</svg>
